<mxfile>
    <diagram id="RpFYmOD_BcnMsxDmFIyq" name="主要クラス概要">
        <mxGraphModel dx="1121" dy="481" grid="1" gridSize="10" guides="1" tooltips="1" connect="1" arrows="1" fold="1" page="1" pageScale="1" pageWidth="1169" pageHeight="827" math="0" shadow="0">
            <root>
                <mxCell id="0"/>
                <mxCell id="1" parent="0"/>
                <mxCell id="EcerAdRlv5QST3N77vF3-5" style="edgeStyle=orthogonalEdgeStyle;rounded=0;orthogonalLoop=1;jettySize=auto;html=1;entryX=0;entryY=0.5;entryDx=0;entryDy=0;" edge="1" parent="1" source="5" target="x2cy4W83olCkN1aDR5FC-14">
                    <mxGeometry relative="1" as="geometry"/>
                </mxCell>
                <mxCell id="EcerAdRlv5QST3N77vF3-6" style="edgeStyle=orthogonalEdgeStyle;rounded=0;orthogonalLoop=1;jettySize=auto;html=1;entryX=1;entryY=0.5;entryDx=0;entryDy=0;" edge="1" parent="1" source="5" target="x2cy4W83olCkN1aDR5FC-13">
                    <mxGeometry relative="1" as="geometry"/>
                </mxCell>
                <mxCell id="EcerAdRlv5QST3N77vF3-7" style="edgeStyle=orthogonalEdgeStyle;rounded=0;orthogonalLoop=1;jettySize=auto;html=1;entryX=0.5;entryY=1;entryDx=0;entryDy=0;" edge="1" parent="1" source="5" target="x2cy4W83olCkN1aDR5FC-7">
                    <mxGeometry relative="1" as="geometry"/>
                </mxCell>
                <mxCell id="EcerAdRlv5QST3N77vF3-8" style="edgeStyle=orthogonalEdgeStyle;rounded=0;orthogonalLoop=1;jettySize=auto;html=1;" edge="1" parent="1" source="5" target="x2cy4W83olCkN1aDR5FC-12">
                    <mxGeometry relative="1" as="geometry"/>
                </mxCell>
                <mxCell id="k1VNlTpqP-FXdFRnQERY-7" style="edgeStyle=orthogonalEdgeStyle;rounded=0;orthogonalLoop=1;jettySize=auto;html=1;exitX=0.25;exitY=0;exitDx=0;exitDy=0;entryX=0.5;entryY=1;entryDx=0;entryDy=0;" edge="1" parent="1" source="5" target="k1VNlTpqP-FXdFRnQERY-5">
                    <mxGeometry relative="1" as="geometry"/>
                </mxCell>
                <mxCell id="k1VNlTpqP-FXdFRnQERY-8" style="edgeStyle=orthogonalEdgeStyle;rounded=0;orthogonalLoop=1;jettySize=auto;html=1;exitX=0.75;exitY=0;exitDx=0;exitDy=0;entryX=0.5;entryY=1;entryDx=0;entryDy=0;" edge="1" parent="1" source="5" target="k1VNlTpqP-FXdFRnQERY-6">
                    <mxGeometry relative="1" as="geometry"/>
                </mxCell>
                <mxCell id="k1VNlTpqP-FXdFRnQERY-11" style="edgeStyle=orthogonalEdgeStyle;rounded=0;orthogonalLoop=1;jettySize=auto;html=1;exitX=0.75;exitY=1;exitDx=0;exitDy=0;entryX=0.5;entryY=0;entryDx=0;entryDy=0;" edge="1" parent="1" source="5" target="k1VNlTpqP-FXdFRnQERY-10">
                    <mxGeometry relative="1" as="geometry"/>
                </mxCell>
                <mxCell id="k1VNlTpqP-FXdFRnQERY-12" style="edgeStyle=orthogonalEdgeStyle;rounded=0;orthogonalLoop=1;jettySize=auto;html=1;exitX=0.25;exitY=1;exitDx=0;exitDy=0;entryX=0.5;entryY=0;entryDx=0;entryDy=0;" edge="1" parent="1" source="5" target="k1VNlTpqP-FXdFRnQERY-9">
                    <mxGeometry relative="1" as="geometry"/>
                </mxCell>
                <mxCell id="5" value="Center" style="swimlane;fontStyle=1;align=center;verticalAlign=middle;childLayout=stackLayout;horizontal=1;startSize=29;horizontalStack=0;resizeParent=1;resizeParentMax=0;resizeLast=0;collapsible=0;marginBottom=0;html=1;" parent="1" vertex="1">
                    <mxGeometry x="640" y="330" width="120" height="54" as="geometry"/>
                </mxCell>
                <mxCell id="x2cy4W83olCkN1aDR5FC-7" value="Top" style="swimlane;fontStyle=1;align=center;verticalAlign=middle;childLayout=stackLayout;horizontal=1;startSize=29;horizontalStack=0;resizeParent=1;resizeParentMax=0;resizeLast=0;collapsible=0;marginBottom=0;html=1;" vertex="1" parent="1">
                    <mxGeometry x="640" y="200" width="120" height="54" as="geometry"/>
                </mxCell>
                <mxCell id="x2cy4W83olCkN1aDR5FC-12" value="Bottom" style="swimlane;fontStyle=1;align=center;verticalAlign=middle;childLayout=stackLayout;horizontal=1;startSize=29;horizontalStack=0;resizeParent=1;resizeParentMax=0;resizeLast=0;collapsible=0;marginBottom=0;html=1;" vertex="1" parent="1">
                    <mxGeometry x="640" y="480" width="120" height="54" as="geometry"/>
                </mxCell>
                <mxCell id="x2cy4W83olCkN1aDR5FC-13" value="Left" style="swimlane;fontStyle=1;align=center;verticalAlign=middle;childLayout=stackLayout;horizontal=1;startSize=29;horizontalStack=0;resizeParent=1;resizeParentMax=0;resizeLast=0;collapsible=0;marginBottom=0;html=1;" vertex="1" parent="1">
                    <mxGeometry x="400" y="330" width="120" height="54" as="geometry"/>
                </mxCell>
                <mxCell id="x2cy4W83olCkN1aDR5FC-14" value="Right" style="swimlane;fontStyle=1;align=center;verticalAlign=middle;childLayout=stackLayout;horizontal=1;startSize=29;horizontalStack=0;resizeParent=1;resizeParentMax=0;resizeLast=0;collapsible=0;marginBottom=0;html=1;" vertex="1" parent="1">
                    <mxGeometry x="880" y="330" width="120" height="54" as="geometry"/>
                </mxCell>
                <mxCell id="74LGmfJz6wmLT3L9MuzZ-5" value="&lt;div style=&quot;color: rgb(64 , 63 , 83) ; background-color: rgb(251 , 251 , 251) ; font-family: &amp;#34;menlo&amp;#34; , &amp;#34;monaco&amp;#34; , &amp;#34;courier new&amp;#34; , monospace ; line-height: 18px&quot;&gt;&lt;div&gt;&lt;span style=&quot;color: #939dbb&quot;&gt;//&lt;/span&gt;&lt;span style=&quot;color: #939dbb ; font-style: italic&quot;&gt; 配置は 3x3 の 9マス位を想定&lt;/span&gt;&lt;/div&gt;&lt;div&gt;  &lt;span style=&quot;color: #4876d6 ; font-style: italic&quot;&gt;sheet&lt;/span&gt;(&lt;span style=&quot;color: #111111&quot;&gt;'&lt;/span&gt;&lt;span style=&quot;color: #c96765&quot;&gt;main_summary&lt;/span&gt;&lt;span style=&quot;color: #111111&quot;&gt;'&lt;/span&gt;,&lt;span style=&quot;color: #111111&quot;&gt;'&lt;/span&gt;&lt;span style=&quot;color: #c96765&quot;&gt;主要クラス概要&lt;/span&gt;&lt;span style=&quot;color: #111111&quot;&gt;'&lt;/span&gt;){&lt;/div&gt;&lt;div&gt;    &lt;span style=&quot;color: #939dbb&quot;&gt;&amp;nbsp; //&lt;/span&gt;&lt;span style=&quot;color: #939dbb ; font-style: italic&quot;&gt; 関連を追う深さ(depth)等 の デフォルト値&lt;/span&gt;&lt;span style=&quot;color: rgb(147 , 157 , 187) ; font-style: italic&quot;&gt;を&lt;/span&gt;&lt;/div&gt;&lt;div&gt;&lt;span style=&quot;color: #939dbb ; font-style: italic&quot;&gt;&amp;nbsp; // 上書きしたかったら下記のように設定する&lt;/span&gt;&lt;/div&gt;&lt;div&gt;    &lt;span style=&quot;color: #4876d6 ; font-style: italic&quot;&gt;&amp;nbsp; center&lt;/span&gt;(Center,{depth:&lt;span style=&quot;color: #aa0982&quot;&gt;2&lt;/span&gt;})&lt;/div&gt;&lt;div&gt;  }&lt;/div&gt;&lt;/div&gt;" style="shape=note;whiteSpace=wrap;html=1;backgroundOutline=1;darkOpacity=0.05;align=left;" vertex="1" parent="1">
                    <mxGeometry x="20" y="260" width="280" height="180" as="geometry"/>
                </mxCell>
                <mxCell id="k1VNlTpqP-FXdFRnQERY-5" value="TopLeft" style="swimlane;fontStyle=1;align=center;verticalAlign=middle;childLayout=stackLayout;horizontal=1;startSize=29;horizontalStack=0;resizeParent=1;resizeParentMax=0;resizeLast=0;collapsible=0;marginBottom=0;html=1;" vertex="1" parent="1">
                    <mxGeometry x="400" y="200" width="120" height="54" as="geometry"/>
                </mxCell>
                <mxCell id="k1VNlTpqP-FXdFRnQERY-6" value="TopRight" style="swimlane;fontStyle=1;align=center;verticalAlign=middle;childLayout=stackLayout;horizontal=1;startSize=29;horizontalStack=0;resizeParent=1;resizeParentMax=0;resizeLast=0;collapsible=0;marginBottom=0;html=1;" vertex="1" parent="1">
                    <mxGeometry x="880" y="200" width="120" height="54" as="geometry"/>
                </mxCell>
                <mxCell id="k1VNlTpqP-FXdFRnQERY-9" value="BottomLeft" style="swimlane;fontStyle=1;align=center;verticalAlign=middle;childLayout=stackLayout;horizontal=1;startSize=29;horizontalStack=0;resizeParent=1;resizeParentMax=0;resizeLast=0;collapsible=0;marginBottom=0;html=1;" vertex="1" parent="1">
                    <mxGeometry x="400" y="480" width="120" height="54" as="geometry"/>
                </mxCell>
                <mxCell id="k1VNlTpqP-FXdFRnQERY-10" value="BottomRight" style="swimlane;fontStyle=1;align=center;verticalAlign=middle;childLayout=stackLayout;horizontal=1;startSize=29;horizontalStack=0;resizeParent=1;resizeParentMax=0;resizeLast=0;collapsible=0;marginBottom=0;html=1;" vertex="1" parent="1">
                    <mxGeometry x="880" y="480" width="120" height="54" as="geometry"/>
                </mxCell>
            </root>
        </mxGraphModel>
    </diagram>
    <diagram id="rrQuDNouf_YyUUG2s8bH" name="Topクラス概要">
        <mxGraphModel dx="1121" dy="481" grid="1" gridSize="10" guides="1" tooltips="1" connect="1" arrows="1" fold="1" page="1" pageScale="1" pageWidth="1169" pageHeight="827" math="0" shadow="0">
            <root>
                <mxCell id="FB9HXwfBE5hu0cVKkT1W-0"/>
                <mxCell id="FB9HXwfBE5hu0cVKkT1W-1" parent="FB9HXwfBE5hu0cVKkT1W-0"/>
                <mxCell id="W9epGnvoaajZB40m9MXd-0" style="edgeStyle=orthogonalEdgeStyle;rounded=0;orthogonalLoop=1;jettySize=auto;html=1;entryX=0;entryY=0.5;entryDx=0;entryDy=0;" edge="1" parent="FB9HXwfBE5hu0cVKkT1W-1" source="VBUCHWbq_ADSbDXC5AeN-0" target="VBUCHWbq_ADSbDXC5AeN-1">
                    <mxGeometry relative="1" as="geometry"/>
                </mxCell>
                <mxCell id="W9epGnvoaajZB40m9MXd-1" style="edgeStyle=orthogonalEdgeStyle;rounded=0;orthogonalLoop=1;jettySize=auto;html=1;entryX=1;entryY=0.5;entryDx=0;entryDy=0;" edge="1" parent="FB9HXwfBE5hu0cVKkT1W-1" source="VBUCHWbq_ADSbDXC5AeN-0" target="VBUCHWbq_ADSbDXC5AeN-2">
                    <mxGeometry relative="1" as="geometry"/>
                </mxCell>
                <mxCell id="t8jLJAk9p_09-WWcR606-4" style="edgeStyle=orthogonalEdgeStyle;rounded=0;orthogonalLoop=1;jettySize=auto;html=1;exitX=0.25;exitY=0;exitDx=0;exitDy=0;entryX=0.5;entryY=1;entryDx=0;entryDy=0;" edge="1" parent="FB9HXwfBE5hu0cVKkT1W-1" source="VBUCHWbq_ADSbDXC5AeN-0" target="t8jLJAk9p_09-WWcR606-1">
                    <mxGeometry relative="1" as="geometry"/>
                </mxCell>
                <mxCell id="t8jLJAk9p_09-WWcR606-5" style="edgeStyle=orthogonalEdgeStyle;rounded=0;orthogonalLoop=1;jettySize=auto;html=1;exitX=0.5;exitY=0;exitDx=0;exitDy=0;entryX=0.5;entryY=1;entryDx=0;entryDy=0;" edge="1" parent="FB9HXwfBE5hu0cVKkT1W-1" source="VBUCHWbq_ADSbDXC5AeN-0" target="t8jLJAk9p_09-WWcR606-3">
                    <mxGeometry relative="1" as="geometry"/>
                </mxCell>
                <mxCell id="t8jLJAk9p_09-WWcR606-6" style="edgeStyle=orthogonalEdgeStyle;rounded=0;orthogonalLoop=1;jettySize=auto;html=1;exitX=0.75;exitY=0;exitDx=0;exitDy=0;entryX=0.5;entryY=1;entryDx=0;entryDy=0;" edge="1" parent="FB9HXwfBE5hu0cVKkT1W-1" source="VBUCHWbq_ADSbDXC5AeN-0" target="t8jLJAk9p_09-WWcR606-2">
                    <mxGeometry relative="1" as="geometry"/>
                </mxCell>
                <mxCell id="VBUCHWbq_ADSbDXC5AeN-0" value="Top" style="swimlane;fontStyle=1;align=center;verticalAlign=middle;childLayout=stackLayout;horizontal=1;startSize=29;horizontalStack=0;resizeParent=1;resizeParentMax=0;resizeLast=0;collapsible=0;marginBottom=0;html=1;" vertex="1" parent="FB9HXwfBE5hu0cVKkT1W-1">
                    <mxGeometry x="440" y="200" width="120" height="54" as="geometry"/>
                </mxCell>
                <mxCell id="VBUCHWbq_ADSbDXC5AeN-1" value="TopRight" style="swimlane;fontStyle=1;align=center;verticalAlign=middle;childLayout=stackLayout;horizontal=1;startSize=29;horizontalStack=0;resizeParent=1;resizeParentMax=0;resizeLast=0;collapsible=0;marginBottom=0;html=1;" vertex="1" parent="FB9HXwfBE5hu0cVKkT1W-1">
                    <mxGeometry x="680" y="200" width="120" height="54" as="geometry"/>
                </mxCell>
                <mxCell id="VBUCHWbq_ADSbDXC5AeN-2" value="TopLeft" style="swimlane;fontStyle=1;align=center;verticalAlign=middle;childLayout=stackLayout;horizontal=1;startSize=29;horizontalStack=0;resizeParent=1;resizeParentMax=0;resizeLast=0;collapsible=0;marginBottom=0;html=1;" vertex="1" parent="FB9HXwfBE5hu0cVKkT1W-1">
                    <mxGeometry x="200" y="200" width="120" height="54" as="geometry"/>
                </mxCell>
                <mxCell id="olBolwa5GnNg-QHv-9e4-1" style="edgeStyle=orthogonalEdgeStyle;rounded=0;orthogonalLoop=1;jettySize=auto;html=1;entryX=0.5;entryY=1;entryDx=0;entryDy=0;" edge="1" parent="FB9HXwfBE5hu0cVKkT1W-1" source="olBolwa5GnNg-QHv-9e4-0" target="VBUCHWbq_ADSbDXC5AeN-0">
                    <mxGeometry relative="1" as="geometry"/>
                </mxCell>
                <mxCell id="olBolwa5GnNg-QHv-9e4-0" value="Center" style="swimlane;fontStyle=1;align=center;verticalAlign=middle;childLayout=stackLayout;horizontal=1;startSize=29;horizontalStack=0;resizeParent=1;resizeParentMax=0;resizeLast=0;collapsible=0;marginBottom=0;html=1;" vertex="1" parent="FB9HXwfBE5hu0cVKkT1W-1">
                    <mxGeometry x="440" y="320" width="120" height="54" as="geometry"/>
                </mxCell>
                <mxCell id="t8jLJAk9p_09-WWcR606-0" value="&lt;div style=&quot;color: rgb(64 , 63 , 83) ; background-color: rgb(251 , 251 , 251) ; font-family: &amp;#34;menlo&amp;#34; , &amp;#34;monaco&amp;#34; , &amp;#34;courier new&amp;#34; , monospace ; line-height: 18px&quot;&gt;&lt;div&gt;&lt;span style=&quot;color: #4876d6 ; font-style: italic&quot;&gt;sheet&lt;/span&gt;(&lt;span style=&quot;color: #111111&quot;&gt;'&lt;/span&gt;&lt;span style=&quot;color: #c96765&quot;&gt;around_top&lt;/span&gt;&lt;span style=&quot;color: #111111&quot;&gt;'&lt;/span&gt;,&lt;span style=&quot;color: #111111&quot;&gt;'&lt;/span&gt;&lt;span style=&quot;color: #c96765&quot;&gt;Topクラス概要&lt;/span&gt;&lt;span style=&quot;color: #111111&quot;&gt;'&lt;/span&gt;){&lt;/div&gt;&lt;div&gt;&lt;span style=&quot;color: #4876d6 ; font-style: italic&quot;&gt;&amp;nbsp; center&lt;/span&gt;(Top)&lt;/div&gt;&lt;div&gt;&lt;span style=&quot;color: #4876d6 ; font-style: italic&quot;&gt;&amp;nbsp; right&lt;/span&gt;(TopRight)&lt;/div&gt;&lt;div&gt;&lt;span style=&quot;color: #4876d6 ; font-style: italic&quot;&gt;&amp;nbsp; left&lt;/span&gt;(TopLeft)&lt;/div&gt;&lt;div&gt;&lt;span style=&quot;color: #4876d6 ; font-style: italic&quot;&gt;&amp;nbsp; bottom&lt;/span&gt;(Center)&lt;/div&gt;&lt;div&gt;&lt;span style=&quot;color: #939dbb&quot;&gt;&amp;nbsp; //&lt;/span&gt;&lt;span style=&quot;color: #939dbb ; font-style: italic&quot;&gt; top()&lt;/span&gt;&lt;/div&gt;&lt;div&gt;    &lt;span style=&quot;color: #939dbb&quot;&gt;&amp;nbsp; //&lt;/span&gt;&lt;span style=&quot;color: #939dbb ; font-style: italic&quot;&gt; topLeft()&lt;/span&gt;&lt;/div&gt;&lt;div&gt;    &lt;span style=&quot;color: #939dbb&quot;&gt;&amp;nbsp; //&lt;/span&gt;&lt;span style=&quot;color: #939dbb ; font-style: italic&quot;&gt; topRight()&lt;/span&gt;&lt;/div&gt;&lt;div&gt;    &lt;span style=&quot;color: #939dbb&quot;&gt;&amp;nbsp; //&lt;/span&gt;&lt;span style=&quot;color: #939dbb ; font-style: italic&quot;&gt; ...&lt;/span&gt;&lt;/div&gt;&lt;div&gt;  }&lt;/div&gt;&lt;/div&gt;" style="shape=note;whiteSpace=wrap;html=1;backgroundOutline=1;darkOpacity=0.05;align=left;" vertex="1" parent="FB9HXwfBE5hu0cVKkT1W-1">
                    <mxGeometry x="40" y="320" width="290" height="310" as="geometry"/>
                </mxCell>
                <mxCell id="t8jLJAk9p_09-WWcR606-1" value="Hoge1" style="swimlane;fontStyle=1;align=center;verticalAlign=middle;childLayout=stackLayout;horizontal=1;startSize=29;horizontalStack=0;resizeParent=1;resizeParentMax=0;resizeLast=0;collapsible=0;marginBottom=0;html=1;" vertex="1" parent="FB9HXwfBE5hu0cVKkT1W-1">
                    <mxGeometry x="200" y="40" width="120" height="54" as="geometry"/>
                </mxCell>
                <mxCell id="t8jLJAk9p_09-WWcR606-2" value="Hoge3" style="swimlane;fontStyle=1;align=center;verticalAlign=middle;childLayout=stackLayout;horizontal=1;startSize=29;horizontalStack=0;resizeParent=1;resizeParentMax=0;resizeLast=0;collapsible=0;marginBottom=0;html=1;" vertex="1" parent="FB9HXwfBE5hu0cVKkT1W-1">
                    <mxGeometry x="680" y="40" width="120" height="54" as="geometry"/>
                </mxCell>
                <mxCell id="t8jLJAk9p_09-WWcR606-3" value="Hoge2" style="swimlane;fontStyle=1;align=center;verticalAlign=middle;childLayout=stackLayout;horizontal=1;startSize=29;horizontalStack=0;resizeParent=1;resizeParentMax=0;resizeLast=0;collapsible=0;marginBottom=0;html=1;" vertex="1" parent="FB9HXwfBE5hu0cVKkT1W-1">
                    <mxGeometry x="440" y="40" width="120" height="54" as="geometry"/>
                </mxCell>
            </root>
        </mxGraphModel>
    </diagram>
</mxfile>
